# xmcd
#
# Track frame offsets:
#	150
#	21637
#	39362
#	56887
#	75412
#	92362
#	108862
#	129012
#	145787
#	158100
#	173337
#	189512
#	208737
#	230587
#	247237
#	267887
#	286987
#	307887
#
# Disc length: 4270 seconds
#
# Revision: 1
# Processed by: cddbd v1.5PL3 Copyright (c) Steve Scherf et al.
# Submitted via: CDex 1.50Beta5
#
DISCID=ea10ac12
DTITLE=小林旭 - 小林旭ヒット全曲集
DYEAR=1993
DGENRE=Pop
TTITLE0=熱き心に
TTITLE1=北へ
TTITLE2=昔の名前で出ています
TTITLE3=ついて来るかい
TTITLE4=雨の石段
TTITLE5=オロロン慕情
TTITLE6=五月雨ワルツ
TTITLE7=横浜マドロスストーリー
TTITLE8=自動車ショー歌
TTITLE9=お世話になったあの人へ
TTITLE10=もう一度一から出なおしします
TTITLE11=夜の旅人
TTITLE12=世去れのお涼
TTITLE13=水たまり
TTITLE14=旅空夜空
TTITLE15=波止場にて
TTITLE16=風に吹かれて
TTITLE17=北帰行
EXTD=
EXTT0=
EXTT1=
EXTT2=
EXTT3=
EXTT4=
EXTT5=
EXTT6=
EXTT7=
EXTT8=
EXTT9=
EXTT10=
EXTT11=
EXTT12=
EXTT13=
EXTT14=
EXTT15=
EXTT16=
EXTT17=
PLAYORDER=
